<svg width="121" height="136" viewBox="0 0 121 136" fill="none" xmlns="http://www.w3.org/2000/svg">
<path fill-rule="evenodd" clip-rule="evenodd" d="M81.7945 82.0867L78.6521 85.311L74.951 87.8391C56.3871 100.519 30.9469 97.1572 16.1743 79.2589C0.361061 60.0996 2.8053 31.607 21.5554 15.6119C40.3056 -0.383202 68.3303 2.11731 84.1436 21.2766C99.0594 39.3484 97.7313 65.734 81.7945 82.0867ZM87.9475 18.0315C104.509 38.0973 103.055 67.424 85.3138 85.6279L120.778 128.596L113.221 135.044L77.71 92.0193C57.045 106.135 28.7733 102.378 12.3704 82.5039C-5.18467 61.2343 -2.49735 29.5593 18.3727 11.7557C39.2427 -6.04781 70.3925 -3.23804 87.9475 18.0315Z" fill="black" fill-opacity="0.2"/>
</svg>
