<svg width="100" height="100" viewBox="0 0 100 100" fill="none" xmlns="http://www.w3.org/2000/svg">
<rect x="0.5" y="0.5" width="99" height="99" rx="29.5" fill="#ED1C00" fill-opacity="0.8" stroke="black"/>
<path fill-rule="evenodd" clip-rule="evenodd" d="M15.9836 27.707C15.3618 28.6524 15 29.7839 15 31V69C15 72.3137 17.6863 75 21 75H79C82.3137 75 85 72.3137 85 69V31C85 27.6863 82.3137 25 79 25H21C20.146 25 19.3337 25.1784 18.5983 25.5H18.5111H18.4178H18.3256H18.2345H18.1446H18.0558H17.9681H17.8816H17.7963H17.7121H17.6291H17.5473H17.4667H17.3872H17.3089H17.2319H17.2273L16.5909 26.5H16.5932H16.6592H16.7265H16.795H16.8647H16.9357H17.0079H17.0313C16.8813 26.6323 16.738 26.7721 16.602 26.9186C16.5441 26.8668 16.488 26.8164 16.4338 26.7675L16.4255 26.76L15.8811 27.6154C15.9146 27.6455 15.9488 27.676 15.9836 27.707Z" fill="white"/>
<path d="M15.9836 27.707L17.2368 28.5313L17.9484 27.4495L16.982 26.5876L15.9836 27.707ZM18.5983 25.5V27H18.9119L19.1993 26.8743L18.5983 25.5ZM17.2273 25.5V24H16.4039L15.9618 24.6947L17.2273 25.5ZM16.5909 26.5L15.3254 25.6947L13.8584 28H16.5909V26.5ZM17.0313 26.5L18.0239 27.6246L20.9975 25H17.0313V26.5ZM16.602 26.9186L15.6022 28.0368L16.6997 29.018L17.7013 27.9392L16.602 26.9186ZM16.4338 26.7675L15.4286 27.8808L15.4287 27.881L16.4338 26.7675ZM16.4255 26.76L17.4307 25.6467L16.1131 24.457L15.16 25.9547L16.4255 26.76ZM15.8811 27.6154L14.6156 26.8101L13.9328 27.8832L14.8798 28.7322L15.8811 27.6154ZM16.5 31C16.5 30.0858 16.771 29.2394 17.2368 28.5313L14.7304 26.8827C13.9525 28.0653 13.5 29.4821 13.5 31H16.5ZM16.5 69V31H13.5V69H16.5ZM21 73.5C18.5147 73.5 16.5 71.4853 16.5 69H13.5C13.5 73.1421 16.8579 76.5 21 76.5V73.5ZM79 73.5H21V76.5H79V73.5ZM83.5 69C83.5 71.4853 81.4853 73.5 79 73.5V76.5C83.1421 76.5 86.5 73.1421 86.5 69H83.5ZM83.5 31V69H86.5V31H83.5ZM79 26.5C81.4853 26.5 83.5 28.5147 83.5 31H86.5C86.5 26.8579 83.1421 23.5 79 23.5V26.5ZM21 26.5H79V23.5H21V26.5ZM19.1993 26.8743C19.7487 26.6341 20.3567 26.5 21 26.5V23.5C19.9353 23.5 18.9186 23.7228 17.9973 24.1257L19.1993 26.8743ZM18.5983 24H18.5111V27H18.5983V24ZM18.5111 24H18.4178V27H18.5111V24ZM18.4178 24H18.3256V27H18.4178V24ZM18.3256 24H18.2345V27H18.3256V24ZM18.2345 24H18.1446V27H18.2345V24ZM18.1446 24H18.0558V27H18.1446V24ZM18.0558 24H17.9681V27H18.0558V24ZM17.9681 24H17.8816V27H17.9681V24ZM17.8816 24H17.7963V27H17.8816V24ZM17.7963 24H17.7121V27H17.7963V24ZM17.7121 24H17.6291V27H17.7121V24ZM17.6291 24H17.5473V27H17.6291V24ZM17.5473 24H17.4667V27H17.5473V24ZM17.4667 24H17.3872V27H17.4667V24ZM17.3872 24H17.3089V27H17.3872V24ZM17.3089 24H17.2319V27H17.3089V24ZM17.2319 24H17.2273V27H17.2319V24ZM15.9618 24.6947L15.3254 25.6947L17.8564 27.3053L18.4928 26.3053L15.9618 24.6947ZM16.5909 28H16.5932V25H16.5909V28ZM16.5932 28H16.6592V25H16.5932V28ZM16.6592 28H16.7265V25H16.6592V28ZM16.7265 28H16.795V25H16.7265V28ZM16.795 28H16.8647V25H16.795V28ZM16.8647 28H16.9357V25H16.8647V28ZM16.9357 28H17.0079V25H16.9357V28ZM17.0079 28H17.0313V25H17.0079V28ZM17.7013 27.9392C17.8035 27.8291 17.9112 27.7241 18.0239 27.6246L16.0387 25.3754C15.8515 25.5406 15.6726 25.7151 15.5027 25.898L17.7013 27.9392ZM17.6018 25.8003C17.5455 25.75 17.4912 25.7013 17.4389 25.6541L15.4287 27.881C15.4848 27.9316 15.5427 27.9836 15.6022 28.0368L17.6018 25.8003ZM17.439 25.6542L17.4307 25.6467L15.4202 27.8733L15.4286 27.8808L17.439 25.6542ZM15.16 25.9547L14.6156 26.8101L17.1466 28.4207L17.691 27.5653L15.16 25.9547ZM14.8798 28.7322C14.9143 28.7632 14.9494 28.7946 14.9852 28.8265L16.982 26.5876C16.9482 26.5574 16.915 26.5277 16.8824 26.4986L14.8798 28.7322Z" fill="black"/>
<path fill-rule="evenodd" clip-rule="evenodd" d="M19.4125 29.8801C17.9815 28.7321 16.8083 27.7642 16 27.0654L16.5558 26.2237C17.3512 26.9154 18.5506 27.9067 20.0382 29.1C23.0173 31.4898 27.1371 34.6779 31.4447 37.8663C35.7534 41.0555 40.2432 44.2401 43.964 46.6254C45.8252 47.8186 47.4856 48.8063 48.83 49.4939C49.5025 49.8379 50.0875 50.1024 50.5738 50.2799C51.0702 50.4611 51.4238 50.5364 51.6472 50.5364C51.8685 50.5364 52.209 50.4621 52.6801 50.2824C53.1421 50.1062 53.6932 49.843 54.3231 49.5C55.5826 48.8141 57.1224 47.8281 58.8385 46.6357C62.2687 44.2522 66.3668 41.0692 70.2683 37.881C74.169 34.6936 77.8653 31.5073 80.4905 29.1201C81.5215 28.1827 82.3832 27.3721 83.026 26.735L83.7154 27.4597C83.058 28.1106 82.1894 28.9269 81.1633 29.86C78.5229 32.2609 74.813 35.4587 70.9011 38.6554C66.9901 41.8513 62.8695 45.0524 59.4091 47.4569C57.6798 48.6585 56.1064 49.6675 54.8014 50.3782C54.1491 50.7334 53.5552 51.0189 53.0365 51.2167C52.5269 51.4111 52.051 51.5364 51.6472 51.5364C51.2457 51.5364 50.7594 51.4122 50.2309 51.2193C49.6923 51.0227 49.0674 50.7386 48.3746 50.3843C46.9886 49.6753 45.2973 48.668 43.4243 47.4672C39.6763 45.0645 35.1661 41.8649 30.8498 38.6701C26.5323 35.4744 22.4022 32.2784 19.4125 29.8801ZM16.7179 26H16.7035L17.3639 25H17.4336H17.5118H17.5913H17.6719H17.7538H17.8368H17.9209H18.0063H18.0928H18.1804H18.2692H18.3591H18.4502H18.5424H18.6357H18.7302H18.8257H18.9223H19.0201H19.1189H19.2189H19.3199H19.422H19.5251H19.6293H19.7346H19.841H19.9483H20.0567H20.1662H20.2767H20.3882H20.5007H20.6142H20.7288H20.8443H20.9608H21.0783H21.1968H21.3163H21.4368H21.5582H21.6805H21.8038H21.9281H22.0533H22.1794H22.3065H22.4345H22.5634H22.6932H22.8239H22.9556H23.0881H23.2215H23.3558H23.4909H23.627H23.7639H23.9016H24.0402H24.1797H24.32H24.4611H24.603H24.7458H24.8894H25.0338H25.179H25.325H25.4718H25.6194H25.7678H25.9169H26.0669H26.2175H26.369H26.5212H26.6741H26.8278H26.9822H27.1373H27.2932H27.4498H27.6071H27.7651H27.9238H28.0832H28.2433H28.404H28.5655H28.7276H28.8903H29.0538H29.2178H29.3826H29.5479H29.7139H29.8806H30.0478H30.2157H30.3842H30.5533H30.723H30.8933H31.0641H31.2356H31.4076H31.5802H31.7534H31.9271H32.1014H32.2762H32.4515H32.6274H32.8039H32.9808H33.1583H33.3362H33.5147H33.6937H33.8732H34.0531H34.2336H34.4145H34.5959H34.7777H34.9601H35.1428H35.326H35.5097H35.6938H35.8783H36.0632H36.2486H36.4343H36.6205H36.8071H36.9941H37.1814H37.3691H37.5573H37.7457H37.9346H38.1238H38.3133H38.5032H38.6935H38.8841H39.075H39.2662H39.4578H39.6496H39.8418H40.0343H40.227H40.4201H40.6134H40.807H41.0009H41.195H41.3894H41.5841H41.779H41.9741H42.1695H42.3651H42.5609H42.7569H42.9532H43.1497H43.3463H43.5432H43.7402H43.9374H44.1348H44.3324H44.5302H44.728H44.9261H45.1243H45.3226H45.5211H45.7197H45.9184H46.1172H46.3162H46.5153H46.7144H46.9137H47.113H47.3124H47.5119H47.7115H47.9111H48.1108H48.3105H48.5103H48.7102H48.91H49.1099H49.3098H49.5098H49.7097H49.9097H50.1096H50.3096H50.5095H50.7094H50.9093H51.1092H51.309H51.5088H51.7085H51.9082H52.1079H52.3074H52.5069H52.7063H52.9057H53.1049H53.3041H53.5031H53.7021H53.9009H54.0996H54.2982H54.4967H54.695H54.8932H55.0912H55.2891H55.4868H55.6844H55.8818H56.079H56.276H56.4729H56.6695H56.866H57.0622H57.2582H57.4541H57.6496H57.845H58.0401H58.235H58.4297H58.624H58.8182H59.012H59.2056H59.3989H59.592H59.7847H59.9772H60.1693H60.3612H60.5527H60.7439H60.9348H61.1254H61.3156H61.5055H61.695H61.8842H62.073H62.2615H62.4496H62.6373H62.8246H63.0116H63.1981H63.3843H63.57H63.7554H63.9403H64.1248H64.3088H64.4925H64.6756H64.8584H65.0407H65.2225H65.4039H65.5848H65.7652H65.9451H66.1246H66.3035H66.482H66.6599H66.8373H67.0143H67.1907H67.3665H67.5419H67.7167H67.8909H68.0646H68.2377H68.4103H68.5823H68.7537H68.9245H69.0948H69.2645H69.4335H69.602H69.7698H69.937H70.1036H70.2696H70.4349H70.5996H70.7637H70.9271H71.0898H71.2519H71.4133H71.574H71.734H71.8934H72.0521H72.21H72.3673H72.5238H72.6796H72.8348H72.9891H73.1428H73.2957H73.4478H73.5992H73.7499H73.8997H74.0488H74.1972H74.3447H74.4915H74.6374H74.7826H74.927H75.0705H75.2133H75.3552H75.4963H75.6365H75.7759H75.9145H76.0522H76.189H76.325H76.4601H76.5944H76.7277H76.8602H76.9917H77.1224H77.2522H77.3811H77.509H77.636H77.7621H77.8872H78.0115H78.1347H78.257H78.3784H78.4988H78.6182H78.7367H78.8541H78.9706H79.0861H79.2006H79.314H79.4265H79.5379H79.6484H79.7578H79.8661H79.9735H80.0797H80.185H80.2891H80.3922H80.4942H80.5952H80.6951H80.7939H80.8915H80.9881H81.0836H81.178H81.2713H81.3634H81.3756L82.3268 26H82.3011H82.2217H82.1411H82.0593H81.9764H81.8923H81.807H81.7206H81.633H81.5443H81.4544H81.3634H81.2713H81.178H81.0836H80.9881H80.8915H80.7939H80.6951H80.5952H80.4942H80.3922H80.2891H80.185H80.0797H79.9735H79.8661H79.7578H79.6484H79.5379H79.4265H79.314H79.2006H79.0861H78.9706H78.8541H78.7367H78.6182H78.4988H78.3784H78.257H78.1347H78.0115H77.8872H77.7621H77.636H77.509H77.3811H77.2522H77.1224H76.9917H76.8602H76.7277H76.5944H76.4601H76.325H76.189H76.0522H75.9145H75.7759H75.6365H75.4963H75.3552H75.2133H75.0705H74.927H74.7826H74.6374H74.4915H74.3447H74.1972H74.0488H73.8997H73.7499H73.5992H73.4478H73.2957H73.1428H72.9891H72.8348H72.6796H72.5238H72.3673H72.21H72.0521H71.8934H71.734H71.574H71.4133H71.2519H71.0898H70.9271H70.7637H70.5996H70.4349H70.2696H70.1036H69.937H69.7698H69.602H69.4335H69.2645H69.0948H68.9245H68.7537H68.5823H68.4103H68.2377H68.0646H67.8909H67.7167H67.5419H67.3665H67.1907H67.0143H66.8373H66.6599H66.482H66.3035H66.1246H65.9451H65.7652H65.5848H65.4039H65.2225H65.0407H64.8584H64.6756H64.4925H64.3088H64.1248H63.9403H63.7554H63.57H63.3843H63.1981H63.0116H62.8246H62.6373H62.4496H62.2615H62.073H61.8842H61.695H61.5055H61.3156H61.1254H60.9348H60.7439H60.5527H60.3612H60.1693H59.9772H59.7847H59.592H59.3989H59.2056H59.012H58.8182H58.624H58.4297H58.235H58.0401H57.845H57.6496H57.4541H57.2582H57.0622H56.866H56.6695H56.4729H56.276H56.079H55.8818H55.6844H55.4868H55.2891H55.0912H54.8932H54.695H54.4967H54.2982H54.0996H53.9009H53.7021H53.5031H53.3041H53.1049H52.9057H52.7063H52.5069H52.3074H52.1079H51.9082H51.7085H51.5088H51.309H51.1092H50.9093H50.7094H50.5095H50.3096H50.1096H49.9097H49.7097H49.5098H49.3098H49.1099H48.91H48.7102H48.5103H48.3105H48.1108H47.9111H47.7115H47.5119H47.3124H47.113H46.9137H46.7144H46.5153H46.3162H46.1172H45.9184H45.7197H45.5211H45.3226H45.1243H44.9261H44.728H44.5302H44.3324H44.1348H43.9374H43.7402H43.5432H43.3463H43.1497H42.9532H42.7569H42.5609H42.3651H42.1695H41.9741H41.779H41.5841H41.3894H41.195H41.0009H40.807H40.6134H40.4201H40.227H40.0343H39.8418H39.6496H39.4578H39.2662H39.075H38.8841H38.6935H38.5032H38.3133H38.1238H37.9346H37.7457H37.5573H37.3691H37.1814H36.9941H36.8071H36.6205H36.4343H36.2486H36.0632H35.8783H35.6938H35.5097H35.326H35.1428H34.9601H34.7777H34.5959H34.4145H34.2336H34.0531H33.8732H33.6937H33.5147H33.3362H33.1583H32.9808H32.8039H32.6274H32.4515H32.2762H32.1014H31.9271H31.7534H31.5802H31.4076H31.2356H31.0641H30.8933H30.723H30.5533H30.3842H30.2157H30.0478H29.8806H29.7139H29.5479H29.3826H29.2178H29.0538H28.8903H28.7276H28.5655H28.404H28.2433H28.0832H27.9238H27.7651H27.6071H27.4498H27.2932H27.1373H26.9822H26.8278H26.6741H26.5212H26.369H26.2175H26.0669H25.9169H25.7678H25.6194H25.4718H25.325H25.179H25.0338H24.8894H24.7458H24.603H24.4611H24.32H24.1797H24.0402H23.9016H23.7639H23.627H23.4909H23.3558H23.2215H23.0881H22.9556H22.8239H22.6932H22.5634H22.4345H22.3065H22.1794H22.0533H21.9281H21.8038H21.6805H21.5582H21.4368H21.3163H21.1968H21.0783H20.9608H20.8443H20.7288H20.6142H20.5007H20.3882H20.2767H20.1662H20.0567H19.9483H19.841H19.7346H19.6293H19.5251H19.422H19.3199H19.2189H19.1189H19.0201H18.9223H18.8257H18.7302H18.6357H18.5424H18.4502H18.3591H18.2692H18.1804H18.0928H18.0063H17.9209H17.8368H17.7538H17.6719H17.5913H17.5118H17.4336H17.3565H17.2807H17.206H17.1326H17.0604H16.9894H16.9196H16.8511H16.7839H16.7179Z" fill="black"/>
<path d="M16 27.0654L15.1655 26.5143L14.6815 27.2473L15.346 27.8218L16 27.0654ZM19.4125 29.8801L18.7867 30.6601L19.4125 29.8801ZM16.5558 26.2237L17.212 25.4691L16.3505 24.7199L15.7213 25.6727L16.5558 26.2237ZM20.0382 29.1L20.664 28.32L20.0382 29.1ZM31.4447 37.8663L30.8498 38.6701L31.4447 37.8663ZM43.964 46.6254L44.5037 45.7835L43.964 46.6254ZM48.83 49.4939L49.2853 48.6036V48.6036L48.83 49.4939ZM50.5738 50.2799L50.2309 51.2193L50.5738 50.2799ZM52.6801 50.2824L53.0365 51.2167L53.0365 51.2167L52.6801 50.2824ZM54.3231 49.5L54.8014 50.3782V50.3782L54.3231 49.5ZM58.8385 46.6357L58.2678 45.8145L58.8385 46.6357ZM70.2683 37.881L70.9011 38.6554L70.2683 37.881ZM80.4905 29.1201L81.1633 29.86V29.86L80.4905 29.1201ZM83.026 26.735L83.7505 26.0458L83.047 25.3062L82.322 26.0248L83.026 26.735ZM83.7154 27.4597L84.419 28.1703L85.1155 27.4806L84.4399 26.7704L83.7154 27.4597ZM81.1633 29.86L80.4905 29.1201V29.1201L81.1633 29.86ZM70.9011 38.6554L71.5339 39.4297L70.9011 38.6554ZM59.4091 47.4569L59.9797 48.2781L59.4091 47.4569ZM54.8014 50.3782L54.3231 49.5L54.8014 50.3782ZM53.0365 51.2167L52.6801 50.2824L52.6801 50.2824L53.0365 51.2167ZM50.2309 51.2193L50.5738 50.2799L50.2309 51.2193ZM48.3746 50.3843L48.83 49.4939V49.4939L48.3746 50.3843ZM43.4243 47.4672L43.964 46.6254L43.4243 47.4672ZM30.8498 38.6701L30.2548 39.4738L30.8498 38.6701ZM16.7035 26L15.8691 25.4489L14.8448 27H16.7035V26ZM17.3639 25V24H16.8259L16.5294 24.4489L17.3639 25ZM81.3756 25L82.1001 24.3108L81.8045 24H81.3756V25ZM82.3268 26V27H84.6583L83.0514 25.3108L82.3268 26ZM15.346 27.8218C16.1677 28.5323 17.3517 29.509 18.7867 30.6601L20.0382 29.1C18.6112 27.9553 17.4489 26.9961 16.654 26.3089L15.346 27.8218ZM15.7213 25.6727L15.1655 26.5143L16.8345 27.6164L17.3903 26.7748L15.7213 25.6727ZM20.664 28.32C19.1802 27.1297 17.9926 26.148 17.212 25.4691L15.8996 26.9783C16.7097 27.6828 17.921 28.6836 19.4125 29.8801L20.664 28.32ZM32.0396 37.0625C27.742 33.8815 23.6324 30.7013 20.664 28.32L19.4125 29.8801C22.4022 32.2784 26.5323 35.4744 30.8498 38.6701L32.0396 37.0625ZM44.5037 45.7835C40.8101 43.4157 36.3407 40.2461 32.0396 37.0625L30.8498 38.6701C35.1661 41.8649 39.6763 45.0645 43.4243 47.4672L44.5037 45.7835ZM49.2853 48.6036C47.9825 47.9373 46.3531 46.9692 44.5037 45.7835L43.4243 47.4672C45.2973 48.668 46.9886 49.6753 48.3746 50.3843L49.2853 48.6036ZM50.9166 49.3405C50.4828 49.1822 49.9376 48.9372 49.2853 48.6036L48.3746 50.3842C49.0674 50.7386 49.6923 51.0227 50.2309 51.2193L50.9166 49.3405ZM51.6472 49.5364C51.6473 49.5364 51.6461 49.5364 51.6435 49.5363C51.641 49.5362 51.6373 49.536 51.6324 49.5356C51.6226 49.5349 51.6087 49.5335 51.5905 49.531C51.5537 49.526 51.5038 49.517 51.4393 49.502C51.3095 49.4719 51.1367 49.4208 50.9166 49.3405L50.2309 51.2193C50.7589 51.412 51.2454 51.5364 51.6472 51.5364V49.5364ZM52.3237 49.3481C52.1185 49.4263 51.9578 49.4754 51.8375 49.5042C51.7779 49.5184 51.7319 49.5268 51.6983 49.5314C51.6817 49.5337 51.6691 49.535 51.6602 49.5357C51.6513 49.5364 51.6471 49.5364 51.6472 49.5364V51.5364C52.0512 51.5364 52.5273 51.4109 53.0365 51.2167L52.3237 49.3481ZM53.8449 48.6218C53.2373 48.9526 52.7291 49.1935 52.3237 49.3481L53.0365 51.2167C53.5552 51.0189 54.1491 50.7334 54.8014 50.3782L53.8449 48.6218ZM58.2678 45.8145C56.565 46.9977 55.0587 47.9607 53.8449 48.6218L54.8014 50.3782C56.1064 49.6675 57.6798 48.6585 59.4091 47.4569L58.2678 45.8145ZM69.6356 37.1067C65.7435 40.2871 61.6678 43.452 58.2678 45.8145L59.4091 47.4569C62.8695 45.0524 66.9901 41.8513 70.9011 38.6554L69.6356 37.1067ZM79.8178 28.3803C77.2076 30.7537 73.5249 33.9284 69.6356 37.1067L70.9011 38.6554C74.813 35.4587 78.5229 32.2609 81.1633 29.86L79.8178 28.3803ZM82.322 26.0248C81.6933 26.6479 80.8432 27.4479 79.8178 28.3803L81.1633 29.86C82.1998 28.9175 83.0731 28.0963 83.73 27.4452L82.322 26.0248ZM84.4399 26.7704L83.7505 26.0458L82.3015 27.4242L82.9908 28.1489L84.4399 26.7704ZM81.8361 30.5998C82.8677 29.6618 83.7477 28.835 84.419 28.1703L83.0117 26.7491C82.3683 27.3863 81.5111 28.1921 80.4905 29.1201L81.8361 30.5998ZM71.5339 39.4297C75.457 36.2238 79.1806 33.0145 81.8361 30.5998L80.4905 29.1201C77.8653 31.5073 74.169 34.6936 70.2683 37.881L71.5339 39.4297ZM59.9797 48.2781C63.4704 45.8526 67.6135 42.6333 71.5339 39.4297L70.2683 37.881C66.3668 41.0692 62.2687 44.2522 58.8385 46.6357L59.9797 48.2781ZM55.2796 51.2564C56.6302 50.5209 58.2372 49.4889 59.9797 48.2781L58.8385 46.6357C57.1224 47.8281 55.5826 48.8141 54.3231 49.5L55.2796 51.2564ZM53.3929 52.1511C53.9682 51.9316 54.605 51.6238 55.2796 51.2564L54.3231 49.5C53.6932 49.843 53.1421 50.1062 52.6801 50.2824L53.3929 52.1511ZM51.6472 52.5364C52.2332 52.5364 52.8445 52.3602 53.3929 52.1511L52.6801 50.2824C52.2093 50.462 51.8687 50.5364 51.6472 50.5364V52.5364ZM49.8881 52.1587C50.4491 52.3634 51.0678 52.5364 51.6472 52.5364V50.5364C51.4236 50.5364 51.0698 50.4609 50.5738 50.2799L49.8881 52.1587ZM47.9193 51.2746C48.6323 51.6392 49.297 51.9429 49.8881 52.1587L50.5738 50.2799C50.0875 50.1024 49.5025 49.8379 48.83 49.4939L47.9193 51.2746ZM42.8846 48.3091C44.7695 49.5175 46.4916 50.5444 47.9193 51.2746L48.83 49.4939C47.4856 48.8063 45.8252 47.8186 43.964 46.6254L42.8846 48.3091ZM30.2548 39.4738C34.5788 42.6744 39.1094 45.8889 42.8846 48.3091L43.964 46.6254C40.2432 44.2401 35.7534 41.0555 31.4447 37.8663L30.2548 39.4738ZM18.7867 30.6601C21.787 33.0669 25.9275 36.2708 30.2548 39.4738L31.4447 37.8663C27.1371 34.6779 23.0173 31.4898 20.0382 29.1L18.7867 30.6601ZM16.7035 27H16.7179V25H16.7035V27ZM16.5294 24.4489L15.8691 25.4489L17.538 26.5511L18.1984 25.5511L16.5294 24.4489ZM17.4336 24H17.3639V26H17.4336V24ZM17.5118 24H17.4336V26H17.5118V24ZM17.5913 24H17.5118V26H17.5913V24ZM17.6719 24H17.5913V26H17.6719V24ZM17.7538 24H17.6719V26H17.7538V24ZM17.8368 24H17.7538V26H17.8368V24ZM17.9209 24H17.8368V26H17.9209V24ZM18.0063 24H17.9209V26H18.0063V24ZM18.0928 24H18.0063V26H18.0928V24ZM18.1804 24H18.0928V26H18.1804V24ZM18.2692 24H18.1804V26H18.2692V24ZM18.3591 24H18.2692V26H18.3591V24ZM18.4502 24H18.3591V26H18.4502V24ZM18.5424 24H18.4502V26H18.5424V24ZM18.6357 24H18.5424V26H18.6357V24ZM18.7302 24H18.6357V26H18.7302V24ZM18.8257 24H18.7302V26H18.8257V24ZM18.9223 24H18.8257V26H18.9223V24ZM19.0201 24H18.9223V26H19.0201V24ZM19.1189 24H19.0201V26H19.1189V24ZM19.2189 24H19.1189V26H19.2189V24ZM19.3199 24H19.2189V26H19.3199V24ZM19.422 24H19.3199V26H19.422V24ZM19.5251 24H19.422V26H19.5251V24ZM19.6293 24H19.5251V26H19.6293V24ZM19.7346 24H19.6293V26H19.7346V24ZM19.841 24H19.7346V26H19.841V24ZM19.9483 24H19.841V26H19.9483V24ZM20.0567 24H19.9483V26H20.0567V24ZM20.1662 24H20.0567V26H20.1662V24ZM20.2767 24H20.1662V26H20.2767V24ZM20.3882 24H20.2767V26H20.3882V24ZM20.5007 24H20.3882V26H20.5007V24ZM20.6142 24H20.5007V26H20.6142V24ZM20.7288 24H20.6142V26H20.7288V24ZM20.8443 24H20.7288V26H20.8443V24ZM20.9608 24H20.8443V26H20.9608V24ZM21.0783 24H20.9608V26H21.0783V24ZM21.1968 24H21.0783V26H21.1968V24ZM21.3163 24H21.1968V26H21.3163V24ZM21.4368 24H21.3163V26H21.4368V24ZM21.5582 24H21.4368V26H21.5582V24ZM21.6805 24H21.5582V26H21.6805V24ZM21.8038 24H21.6805V26H21.8038V24ZM21.9281 24H21.8038V26H21.9281V24ZM22.0533 24H21.9281V26H22.0533V24ZM22.1794 24H22.0533V26H22.1794V24ZM22.3065 24H22.1794V26H22.3065V24ZM22.4345 24H22.3065V26H22.4345V24ZM22.5634 24H22.4345V26H22.5634V24ZM22.6932 24H22.5634V26H22.6932V24ZM22.8239 24H22.6932V26H22.8239V24ZM22.9556 24H22.8239V26H22.9556V24ZM23.0881 24H22.9556V26H23.0881V24ZM23.2215 24H23.0881V26H23.2215V24ZM23.3558 24H23.2215V26H23.3558V24ZM23.4909 24H23.3558V26H23.4909V24ZM23.627 24H23.4909V26H23.627V24ZM23.7639 24H23.627V26H23.7639V24ZM23.9016 24H23.7639V26H23.9016V24ZM24.0402 24H23.9016V26H24.0402V24ZM24.1797 24H24.0402V26H24.1797V24ZM24.32 24H24.1797V26H24.32V24ZM24.4611 24H24.32V26H24.4611V24ZM24.603 24H24.4611V26H24.603V24ZM24.7458 24H24.603V26H24.7458V24ZM24.8894 24H24.7458V26H24.8894V24ZM25.0338 24H24.8894V26H25.0338V24ZM25.179 24H25.0338V26H25.179V24ZM25.325 24H25.179V26H25.325V24ZM25.4718 24H25.325V26H25.4718V24ZM25.6194 24H25.4718V26H25.6194V24ZM25.7678 24H25.6194V26H25.7678V24ZM25.9169 24H25.7678V26H25.9169V24ZM26.0669 24H25.9169V26H26.0669V24ZM26.2175 24H26.0669V26H26.2175V24ZM26.369 24H26.2175V26H26.369V24ZM26.5212 24H26.369V26H26.5212V24ZM26.6741 24H26.5212V26H26.6741V24ZM26.8278 24H26.6741V26H26.8278V24ZM26.9822 24H26.8278V26H26.9822V24ZM27.1373 24H26.9822V26H27.1373V24ZM27.2932 24H27.1373V26H27.2932V24ZM27.4498 24H27.2932V26H27.4498V24ZM27.6071 24H27.4498V26H27.6071V24ZM27.7651 24H27.6071V26H27.7651V24ZM27.9238 24H27.7651V26H27.9238V24ZM28.0832 24H27.9238V26H28.0832V24ZM28.2433 24H28.0832V26H28.2433V24ZM28.404 24H28.2433V26H28.404V24ZM28.5655 24H28.404V26H28.5655V24ZM28.7276 24H28.5655V26H28.7276V24ZM28.8903 24H28.7276V26H28.8903V24ZM29.0538 24H28.8903V26H29.0538V24ZM29.2178 24H29.0538V26H29.2178V24ZM29.3826 24H29.2178V26H29.3826V24ZM29.5479 24H29.3826V26H29.5479V24ZM29.7139 24H29.5479V26H29.7139V24ZM29.8806 24H29.7139V26H29.8806V24ZM30.0478 24H29.8806V26H30.0478V24ZM30.2157 24H30.0478V26H30.2157V24ZM30.3842 24H30.2157V26H30.3842V24ZM30.5533 24H30.3842V26H30.5533V24ZM30.723 24H30.5533V26H30.723V24ZM30.8933 24H30.723V26H30.8933V24ZM31.0641 24H30.8933V26H31.0641V24ZM31.2356 24H31.0641V26H31.2356V24ZM31.4076 24H31.2356V26H31.4076V24ZM31.5802 24H31.4076V26H31.5802V24ZM31.7534 24H31.5802V26H31.7534V24ZM31.9271 24H31.7534V26H31.9271V24ZM32.1014 24H31.9271V26H32.1014V24ZM32.2762 24H32.1014V26H32.2762V24ZM32.4515 24H32.2762V26H32.4515V24ZM32.6274 24H32.4515V26H32.6274V24ZM32.8039 24H32.6274V26H32.8039V24ZM32.9808 24H32.8039V26H32.9808V24ZM33.1583 24H32.9808V26H33.1583V24ZM33.3362 24H33.1583V26H33.3362V24ZM33.5147 24H33.3362V26H33.5147V24ZM33.6937 24H33.5147V26H33.6937V24ZM33.8732 24H33.6937V26H33.8732V24ZM34.0531 24H33.8732V26H34.0531V24ZM34.2336 24H34.0531V26H34.2336V24ZM34.4145 24H34.2336V26H34.4145V24ZM34.5959 24H34.4145V26H34.5959V24ZM34.7777 24H34.5959V26H34.7777V24ZM34.9601 24H34.7777V26H34.9601V24ZM35.1428 24H34.9601V26H35.1428V24ZM35.326 24H35.1428V26H35.326V24ZM35.5097 24H35.326V26H35.5097V24ZM35.6938 24H35.5097V26H35.6938V24ZM35.8783 24H35.6938V26H35.8783V24ZM36.0632 24H35.8783V26H36.0632V24ZM36.2486 24H36.0632V26H36.2486V24ZM36.4343 24H36.2486V26H36.4343V24ZM36.6205 24H36.4343V26H36.6205V24ZM36.8071 24H36.6205V26H36.8071V24ZM36.9941 24H36.8071V26H36.9941V24ZM37.1814 24H36.9941V26H37.1814V24ZM37.3691 24H37.1814V26H37.3691V24ZM37.5573 24H37.3691V26H37.5573V24ZM37.7457 24H37.5573V26H37.7457V24ZM37.9346 24H37.7457V26H37.9346V24ZM38.1238 24H37.9346V26H38.1238V24ZM38.3133 24H38.1238V26H38.3133V24ZM38.5032 24H38.3133V26H38.5032V24ZM38.6935 24H38.5032V26H38.6935V24ZM38.8841 24H38.6935V26H38.8841V24ZM39.075 24H38.8841V26H39.075V24ZM39.2662 24H39.075V26H39.2662V24ZM39.4578 24H39.2662V26H39.4578V24ZM39.6496 24H39.4578V26H39.6496V24ZM39.8418 24H39.6496V26H39.8418V24ZM40.0343 24H39.8418V26H40.0343V24ZM40.227 24H40.0343V26H40.227V24ZM40.4201 24H40.227V26H40.4201V24ZM40.6134 24H40.4201V26H40.6134V24ZM40.807 24H40.6134V26H40.807V24ZM41.0009 24H40.807V26H41.0009V24ZM41.195 24H41.0009V26H41.195V24ZM41.3894 24H41.195V26H41.3894V24ZM41.5841 24H41.3894V26H41.5841V24ZM41.779 24H41.5841V26H41.779V24ZM41.9741 24H41.779V26H41.9741V24ZM42.1695 24H41.9741V26H42.1695V24ZM42.3651 24H42.1695V26H42.3651V24ZM42.5609 24H42.3651V26H42.5609V24ZM42.7569 24H42.5609V26H42.7569V24ZM42.9532 24H42.7569V26H42.9532V24ZM43.1497 24H42.9532V26H43.1497V24ZM43.3463 24H43.1497V26H43.3463V24ZM43.5432 24H43.3463V26H43.5432V24ZM43.7402 24H43.5432V26H43.7402V24ZM43.9374 24H43.7402V26H43.9374V24ZM44.1348 24H43.9374V26H44.1348V24ZM44.3324 24H44.1348V26H44.3324V24ZM44.5302 24H44.3324V26H44.5302V24ZM44.728 24H44.5302V26H44.728V24ZM44.9261 24H44.728V26H44.9261V24ZM45.1243 24H44.9261V26H45.1243V24ZM45.3226 24H45.1243V26H45.3226V24ZM45.5211 24H45.3226V26H45.5211V24ZM45.7197 24H45.5211V26H45.7197V24ZM45.9184 24H45.7197V26H45.9184V24ZM46.1172 24H45.9184V26H46.1172V24ZM46.3162 24H46.1172V26H46.3162V24ZM46.5153 24H46.3162V26H46.5153V24ZM46.7144 24H46.5153V26H46.7144V24ZM46.9137 24H46.7144V26H46.9137V24ZM47.113 24H46.9137V26H47.113V24ZM47.3124 24H47.113V26H47.3124V24ZM47.5119 24H47.3124V26H47.5119V24ZM47.7115 24H47.5119V26H47.7115V24ZM47.9111 24H47.7115V26H47.9111V24ZM48.1108 24H47.9111V26H48.1108V24ZM48.3105 24H48.1108V26H48.3105V24ZM48.5103 24H48.3105V26H48.5103V24ZM48.7102 24H48.5103V26H48.7102V24ZM48.91 24H48.7102V26H48.91V24ZM49.1099 24H48.91V26H49.1099V24ZM49.3098 24H49.1099V26H49.3098V24ZM49.5098 24H49.3098V26H49.5098V24ZM49.7097 24H49.5098V26H49.7097V24ZM49.9097 24H49.7097V26H49.9097V24ZM50.1096 24H49.9097V26H50.1096V24ZM50.3096 24H50.1096V26H50.3096V24ZM50.5095 24H50.3096V26H50.5095V24ZM50.7094 24H50.5095V26H50.7094V24ZM50.9093 24H50.7094V26H50.9093V24ZM51.1092 24H50.9093V26H51.1092V24ZM51.309 24H51.1092V26H51.309V24ZM51.5088 24H51.309V26H51.5088V24ZM51.7085 24H51.5088V26H51.7085V24ZM51.9082 24H51.7085V26H51.9082V24ZM52.1079 24H51.9082V26H52.1079V24ZM52.3074 24H52.1079V26H52.3074V24ZM52.5069 24H52.3074V26H52.5069V24ZM52.7063 24H52.5069V26H52.7063V24ZM52.9057 24H52.7063V26H52.9057V24ZM53.1049 24H52.9057V26H53.1049V24ZM53.3041 24H53.1049V26H53.3041V24ZM53.5031 24H53.3041V26H53.5031V24ZM53.7021 24H53.5031V26H53.7021V24ZM53.9009 24H53.7021V26H53.9009V24ZM54.0996 24H53.9009V26H54.0996V24ZM54.2982 24H54.0996V26H54.2982V24ZM54.4967 24H54.2982V26H54.4967V24ZM54.695 24H54.4967V26H54.695V24ZM54.8932 24H54.695V26H54.8932V24ZM55.0912 24H54.8932V26H55.0912V24ZM55.2891 24H55.0912V26H55.2891V24ZM55.4868 24H55.2891V26H55.4868V24ZM55.6844 24H55.4868V26H55.6844V24ZM55.8818 24H55.6844V26H55.8818V24ZM56.079 24H55.8818V26H56.079V24ZM56.276 24H56.079V26H56.276V24ZM56.4729 24H56.276V26H56.4729V24ZM56.6695 24H56.4729V26H56.6695V24ZM56.866 24H56.6695V26H56.866V24ZM57.0622 24H56.866V26H57.0622V24ZM57.2582 24H57.0622V26H57.2582V24ZM57.4541 24H57.2582V26H57.4541V24ZM57.6496 24H57.4541V26H57.6496V24ZM57.845 24H57.6496V26H57.845V24ZM58.0401 24H57.845V26H58.0401V24ZM58.235 24H58.0401V26H58.235V24ZM58.4297 24H58.235V26H58.4297V24ZM58.624 24H58.4297V26H58.624V24ZM58.8182 24H58.624V26H58.8182V24ZM59.012 24H58.8182V26H59.012V24ZM59.2056 24H59.012V26H59.2056V24ZM59.3989 24H59.2056V26H59.3989V24ZM59.592 24H59.3989V26H59.592V24ZM59.7847 24H59.592V26H59.7847V24ZM59.9772 24H59.7847V26H59.9772V24ZM60.1693 24H59.9772V26H60.1693V24ZM60.3612 24H60.1693V26H60.3612V24ZM60.5527 24H60.3612V26H60.5527V24ZM60.7439 24H60.5527V26H60.7439V24ZM60.9348 24H60.7439V26H60.9348V24ZM61.1254 24H60.9348V26H61.1254V24ZM61.3156 24H61.1254V26H61.3156V24ZM61.5055 24H61.3156V26H61.5055V24ZM61.695 24H61.5055V26H61.695V24ZM61.8842 24H61.695V26H61.8842V24ZM62.073 24H61.8842V26H62.073V24ZM62.2615 24H62.073V26H62.2615V24ZM62.4496 24H62.2615V26H62.4496V24ZM62.6373 24H62.4496V26H62.6373V24ZM62.8246 24H62.6373V26H62.8246V24ZM63.0116 24H62.8246V26H63.0116V24ZM63.1981 24H63.0116V26H63.1981V24ZM63.3843 24H63.1981V26H63.3843V24ZM63.57 24H63.3843V26H63.57V24ZM63.7554 24H63.57V26H63.7554V24ZM63.9403 24H63.7554V26H63.9403V24ZM64.1248 24H63.9403V26H64.1248V24ZM64.3088 24H64.1248V26H64.3088V24ZM64.4925 24H64.3088V26H64.4925V24ZM64.6756 24H64.4925V26H64.6756V24ZM64.8584 24H64.6756V26H64.8584V24ZM65.0407 24H64.8584V26H65.0407V24ZM65.2225 24H65.0407V26H65.2225V24ZM65.4039 24H65.2225V26H65.4039V24ZM65.5848 24H65.4039V26H65.5848V24ZM65.7652 24H65.5848V26H65.7652V24ZM65.9451 24H65.7652V26H65.9451V24ZM66.1246 24H65.9451V26H66.1246V24ZM66.3035 24H66.1246V26H66.3035V24ZM66.482 24H66.3035V26H66.482V24ZM66.6599 24H66.482V26H66.6599V24ZM66.8373 24H66.6599V26H66.8373V24ZM67.0143 24H66.8373V26H67.0143V24ZM67.1907 24H67.0143V26H67.1907V24ZM67.3665 24H67.1907V26H67.3665V24ZM67.5419 24H67.3665V26H67.5419V24ZM67.7167 24H67.5419V26H67.7167V24ZM67.8909 24H67.7167V26H67.8909V24ZM68.0646 24H67.8909V26H68.0646V24ZM68.2377 24H68.0646V26H68.2377V24ZM68.4103 24H68.2377V26H68.4103V24ZM68.5823 24H68.4103V26H68.5823V24ZM68.7537 24H68.5823V26H68.7537V24ZM68.9245 24H68.7537V26H68.9245V24ZM69.0948 24H68.9245V26H69.0948V24ZM69.2645 24H69.0948V26H69.2645V24ZM69.4335 24H69.2645V26H69.4335V24ZM69.602 24H69.4335V26H69.602V24ZM69.7698 24H69.602V26H69.7698V24ZM69.937 24H69.7698V26H69.937V24ZM70.1036 24H69.937V26H70.1036V24ZM70.2696 24H70.1036V26H70.2696V24ZM70.4349 24H70.2696V26H70.4349V24ZM70.5996 24H70.4349V26H70.5996V24ZM70.7637 24H70.5996V26H70.7637V24ZM70.9271 24H70.7637V26H70.9271V24ZM71.0898 24H70.9271V26H71.0898V24ZM71.2519 24H71.0898V26H71.2519V24ZM71.4133 24H71.2519V26H71.4133V24ZM71.574 24H71.4133V26H71.574V24ZM71.734 24H71.574V26H71.734V24ZM71.8934 24H71.734V26H71.8934V24ZM72.0521 24H71.8934V26H72.0521V24ZM72.21 24H72.0521V26H72.21V24ZM72.3673 24H72.21V26H72.3673V24ZM72.5238 24H72.3673V26H72.5238V24ZM72.6796 24H72.5238V26H72.6796V24ZM72.8348 24H72.6796V26H72.8348V24ZM72.9891 24H72.8348V26H72.9891V24ZM73.1428 24H72.9891V26H73.1428V24ZM73.2957 24H73.1428V26H73.2957V24ZM73.4478 24H73.2957V26H73.4478V24ZM73.5992 24H73.4478V26H73.5992V24ZM73.7499 24H73.5992V26H73.7499V24ZM73.8997 24H73.7499V26H73.8997V24ZM74.0488 24H73.8997V26H74.0488V24ZM74.1972 24H74.0488V26H74.1972V24ZM74.3447 24H74.1972V26H74.3447V24ZM74.4915 24H74.3447V26H74.4915V24ZM74.6374 24H74.4915V26H74.6374V24ZM74.7826 24H74.6374V26H74.7826V24ZM74.927 24H74.7826V26H74.927V24ZM75.0705 24H74.927V26H75.0705V24ZM75.2133 24H75.0705V26H75.2133V24ZM75.3552 24H75.2133V26H75.3552V24ZM75.4963 24H75.3552V26H75.4963V24ZM75.6365 24H75.4963V26H75.6365V24ZM75.7759 24H75.6365V26H75.7759V24ZM75.9145 24H75.7759V26H75.9145V24ZM76.0522 24H75.9145V26H76.0522V24ZM76.189 24H76.0522V26H76.189V24ZM76.325 24H76.189V26H76.325V24ZM76.4601 24H76.325V26H76.4601V24ZM76.5944 24H76.4601V26H76.5944V24ZM76.7277 24H76.5944V26H76.7277V24ZM76.8602 24H76.7277V26H76.8602V24ZM76.9917 24H76.8602V26H76.9917V24ZM77.1224 24H76.9917V26H77.1224V24ZM77.2522 24H77.1224V26H77.2522V24ZM77.3811 24H77.2522V26H77.3811V24ZM77.509 24H77.3811V26H77.509V24ZM77.636 24H77.509V26H77.636V24ZM77.7621 24H77.636V26H77.7621V24ZM77.8872 24H77.7621V26H77.8872V24ZM78.0115 24H77.8872V26H78.0115V24ZM78.1347 24H78.0115V26H78.1347V24ZM78.257 24H78.1347V26H78.257V24ZM78.3784 24H78.257V26H78.3784V24ZM78.4988 24H78.3784V26H78.4988V24ZM78.6182 24H78.4988V26H78.6182V24ZM78.7367 24H78.6182V26H78.7367V24ZM78.8541 24H78.7367V26H78.8541V24ZM78.9706 24H78.8541V26H78.9706V24ZM79.0861 24H78.9706V26H79.0861V24ZM79.2006 24H79.0861V26H79.2006V24ZM79.314 24H79.2006V26H79.314V24ZM79.4265 24H79.314V26H79.4265V24ZM79.5379 24H79.4265V26H79.5379V24ZM79.6484 24H79.5379V26H79.6484V24ZM79.7578 24H79.6484V26H79.7578V24ZM79.8661 24H79.7578V26H79.8661V24ZM79.9735 24H79.8661V26H79.9735V24ZM80.0797 24H79.9735V26H80.0797V24ZM80.185 24H80.0797V26H80.185V24ZM80.2891 24H80.185V26H80.2891V24ZM80.3922 24H80.2891V26H80.3922V24ZM80.4942 24H80.3922V26H80.4942V24ZM80.5952 24H80.4942V26H80.5952V24ZM80.6951 24H80.5952V26H80.6951V24ZM80.7939 24H80.6951V26H80.7939V24ZM80.8915 24H80.7939V26H80.8915V24ZM80.9881 24H80.8915V26H80.9881V24ZM81.0836 24H80.9881V26H81.0836V24ZM81.178 24H81.0836V26H81.178V24ZM81.2713 24H81.178V26H81.2713V24ZM81.3634 24H81.2713V26H81.3634V24ZM81.3756 24H81.3634V26H81.3756V24ZM83.0514 25.3108L82.1001 24.3108L80.651 25.6892L81.6023 26.6892L83.0514 25.3108ZM82.3011 27H82.3268V25H82.3011V27ZM82.2217 27H82.3011V25H82.2217V27ZM82.1411 27H82.2217V25H82.1411V27ZM82.0593 27H82.1411V25H82.0593V27ZM81.9764 27H82.0593V25H81.9764V27ZM81.8923 27H81.9764V25H81.8923V27ZM81.807 27H81.8923V25H81.807V27ZM81.7206 27H81.807V25H81.7206V27ZM81.633 27H81.7206V25H81.633V27ZM81.5443 27H81.633V25H81.5443V27ZM81.4544 27H81.5443V25H81.4544V27ZM81.3634 27H81.4544V25H81.3634V27ZM81.2713 27H81.3634V25H81.2713V27ZM81.178 27H81.2713V25H81.178V27ZM81.0836 27H81.178V25H81.0836V27ZM80.9881 27H81.0836V25H80.9881V27ZM80.8915 27H80.9881V25H80.8915V27ZM80.7939 27H80.8915V25H80.7939V27ZM80.6951 27H80.7939V25H80.6951V27ZM80.5952 27H80.6951V25H80.5952V27ZM80.4942 27H80.5952V25H80.4942V27ZM80.3922 27H80.4942V25H80.3922V27ZM80.2891 27H80.3922V25H80.2891V27ZM80.185 27H80.2891V25H80.185V27ZM80.0797 27H80.185V25H80.0797V27ZM79.9735 27H80.0797V25H79.9735V27ZM79.8661 27H79.9735V25H79.8661V27ZM79.7578 27H79.8661V25H79.7578V27ZM79.6484 27H79.7578V25H79.6484V27ZM79.5379 27H79.6484V25H79.5379V27ZM79.4265 27H79.5379V25H79.4265V27ZM79.314 27H79.4265V25H79.314V27ZM79.2006 27H79.314V25H79.2006V27ZM79.0861 27H79.2006V25H79.0861V27ZM78.9706 27H79.0861V25H78.9706V27ZM78.8541 27H78.9706V25H78.8541V27ZM78.7367 27H78.8541V25H78.7367V27ZM78.6182 27H78.7367V25H78.6182V27ZM78.4988 27H78.6182V25H78.4988V27ZM78.3784 27H78.4988V25H78.3784V27ZM78.257 27H78.3784V25H78.257V27ZM78.1347 27H78.257V25H78.1347V27ZM78.0115 27H78.1347V25H78.0115V27ZM77.8872 27H78.0115V25H77.8872V27ZM77.7621 27H77.8872V25H77.7621V27ZM77.636 27H77.7621V25H77.636V27ZM77.509 27H77.636V25H77.509V27ZM77.3811 27H77.509V25H77.3811V27ZM77.2522 27H77.3811V25H77.2522V27ZM77.1224 27H77.2522V25H77.1224V27ZM76.9917 27H77.1224V25H76.9917V27ZM76.8602 27H76.9917V25H76.8602V27ZM76.7277 27H76.8602V25H76.7277V27ZM76.5944 27H76.7277V25H76.5944V27ZM76.4601 27H76.5944V25H76.4601V27ZM76.325 27H76.4601V25H76.325V27ZM76.189 27H76.325V25H76.189V27ZM76.0522 27H76.189V25H76.0522V27ZM75.9145 27H76.0522V25H75.9145V27ZM75.7759 27H75.9145V25H75.7759V27ZM75.6365 27H75.7759V25H75.6365V27ZM75.4963 27H75.6365V25H75.4963V27ZM75.3552 27H75.4963V25H75.3552V27ZM75.2133 27H75.3552V25H75.2133V27ZM75.0705 27H75.2133V25H75.0705V27ZM74.927 27H75.0705V25H74.927V27ZM74.7826 27H74.927V25H74.7826V27ZM74.6374 27H74.7826V25H74.6374V27ZM74.4915 27H74.6374V25H74.4915V27ZM74.3447 27H74.4915V25H74.3447V27ZM74.1972 27H74.3447V25H74.1972V27ZM74.0488 27H74.1972V25H74.0488V27ZM73.8997 27H74.0488V25H73.8997V27ZM73.7499 27H73.8997V25H73.7499V27ZM73.5992 27H73.7499V25H73.5992V27ZM73.4478 27H73.5992V25H73.4478V27ZM73.2957 27H73.4478V25H73.2957V27ZM73.1428 27H73.2957V25H73.1428V27ZM72.9891 27H73.1428V25H72.9891V27ZM72.8348 27H72.9891V25H72.8348V27ZM72.6796 27H72.8348V25H72.6796V27ZM72.5238 27H72.6796V25H72.5238V27ZM72.3673 27H72.5238V25H72.3673V27ZM72.21 27H72.3673V25H72.21V27ZM72.0521 27H72.21V25H72.0521V27ZM71.8934 27H72.0521V25H71.8934V27ZM71.734 27H71.8934V25H71.734V27ZM71.574 27H71.734V25H71.574V27ZM71.4133 27H71.574V25H71.4133V27ZM71.2519 27H71.4133V25H71.2519V27ZM71.0898 27H71.2519V25H71.0898V27ZM70.9271 27H71.0898V25H70.9271V27ZM70.7637 27H70.9271V25H70.7637V27ZM70.5996 27H70.7637V25H70.5996V27ZM70.4349 27H70.5996V25H70.4349V27ZM70.2696 27H70.4349V25H70.2696V27ZM70.1036 27H70.2696V25H70.1036V27ZM69.937 27H70.1036V25H69.937V27ZM69.7698 27H69.937V25H69.7698V27ZM69.602 27H69.7698V25H69.602V27ZM69.4335 27H69.602V25H69.4335V27ZM69.2645 27H69.4335V25H69.2645V27ZM69.0948 27H69.2645V25H69.0948V27ZM68.9245 27H69.0948V25H68.9245V27ZM68.7537 27H68.9245V25H68.7537V27ZM68.5823 27H68.7537V25H68.5823V27ZM68.4103 27H68.5823V25H68.4103V27ZM68.2377 27H68.4103V25H68.2377V27ZM68.0646 27H68.2377V25H68.0646V27ZM67.8909 27H68.0646V25H67.8909V27ZM67.7167 27H67.8909V25H67.7167V27ZM67.5419 27H67.7167V25H67.5419V27ZM67.3665 27H67.5419V25H67.3665V27ZM67.1907 27H67.3665V25H67.1907V27ZM67.0143 27H67.1907V25H67.0143V27ZM66.8373 27H67.0143V25H66.8373V27ZM66.6599 27H66.8373V25H66.6599V27ZM66.482 27H66.6599V25H66.482V27ZM66.3035 27H66.482V25H66.3035V27ZM66.1246 27H66.3035V25H66.1246V27ZM65.9451 27H66.1246V25H65.9451V27ZM65.7652 27H65.9451V25H65.7652V27ZM65.5848 27H65.7652V25H65.5848V27ZM65.4039 27H65.5848V25H65.4039V27ZM65.2225 27H65.4039V25H65.2225V27ZM65.0407 27H65.2225V25H65.0407V27ZM64.8584 27H65.0407V25H64.8584V27ZM64.6756 27H64.8584V25H64.6756V27ZM64.4925 27H64.6756V25H64.4925V27ZM64.3088 27H64.4925V25H64.3088V27ZM64.1248 27H64.3088V25H64.1248V27ZM63.9403 27H64.1248V25H63.9403V27ZM63.7554 27H63.9403V25H63.7554V27ZM63.57 27H63.7554V25H63.57V27ZM63.3843 27H63.57V25H63.3843V27ZM63.1981 27H63.3843V25H63.1981V27ZM63.0116 27H63.1981V25H63.0116V27ZM62.8246 27H63.0116V25H62.8246V27ZM62.6373 27H62.8246V25H62.6373V27ZM62.4496 27H62.6373V25H62.4496V27ZM62.2615 27H62.4496V25H62.2615V27ZM62.073 27H62.2615V25H62.073V27ZM61.8842 27H62.073V25H61.8842V27ZM61.695 27H61.8842V25H61.695V27ZM61.5055 27H61.695V25H61.5055V27ZM61.3156 27H61.5055V25H61.3156V27ZM61.1254 27H61.3156V25H61.1254V27ZM60.9348 27H61.1254V25H60.9348V27ZM60.7439 27H60.9348V25H60.7439V27ZM60.5527 27H60.7439V25H60.5527V27ZM60.3612 27H60.5527V25H60.3612V27ZM60.1693 27H60.3612V25H60.1693V27ZM59.9772 27H60.1693V25H59.9772V27ZM59.7847 27H59.9772V25H59.7847V27ZM59.592 27H59.7847V25H59.592V27ZM59.3989 27H59.592V25H59.3989V27ZM59.2056 27H59.3989V25H59.2056V27ZM59.012 27H59.2056V25H59.012V27ZM58.8182 27H59.012V25H58.8182V27ZM58.624 27H58.8182V25H58.624V27ZM58.4297 27H58.624V25H58.4297V27ZM58.235 27H58.4297V25H58.235V27ZM58.0401 27H58.235V25H58.0401V27ZM57.845 27H58.0401V25H57.845V27ZM57.6496 27H57.845V25H57.6496V27ZM57.4541 27H57.6496V25H57.4541V27ZM57.2582 27H57.4541V25H57.2582V27ZM57.0622 27H57.2582V25H57.0622V27ZM56.866 27H57.0622V25H56.866V27ZM56.6695 27H56.866V25H56.6695V27ZM56.4729 27H56.6695V25H56.4729V27ZM56.276 27H56.4729V25H56.276V27ZM56.079 27H56.276V25H56.079V27ZM55.8818 27H56.079V25H55.8818V27ZM55.6844 27H55.8818V25H55.6844V27ZM55.4868 27H55.6844V25H55.4868V27ZM55.2891 27H55.4868V25H55.2891V27ZM55.0912 27H55.2891V25H55.0912V27ZM54.8932 27H55.0912V25H54.8932V27ZM54.695 27H54.8932V25H54.695V27ZM54.4967 27H54.695V25H54.4967V27ZM54.2982 27H54.4967V25H54.2982V27ZM54.0996 27H54.2982V25H54.0996V27ZM53.9009 27H54.0996V25H53.9009V27ZM53.7021 27H53.9009V25H53.7021V27ZM53.5031 27H53.7021V25H53.5031V27ZM53.3041 27H53.5031V25H53.3041V27ZM53.1049 27H53.3041V25H53.1049V27ZM52.9057 27H53.1049V25H52.9057V27ZM52.7063 27H52.9057V25H52.7063V27ZM52.5069 27H52.7063V25H52.5069V27ZM52.3074 27H52.5069V25H52.3074V27ZM52.1079 27H52.3074V25H52.1079V27ZM51.9082 27H52.1079V25H51.9082V27ZM51.7085 27H51.9082V25H51.7085V27ZM51.5088 27H51.7085V25H51.5088V27ZM51.309 27H51.5088V25H51.309V27ZM51.1092 27H51.309V25H51.1092V27ZM50.9093 27H51.1092V25H50.9093V27ZM50.7094 27H50.9093V25H50.7094V27ZM50.5095 27H50.7094V25H50.5095V27ZM50.3096 27H50.5095V25H50.3096V27ZM50.1096 27H50.3096V25H50.1096V27ZM49.9097 27H50.1096V25H49.9097V27ZM49.7097 27H49.9097V25H49.7097V27ZM49.5098 27H49.7097V25H49.5098V27ZM49.3098 27H49.5098V25H49.3098V27ZM49.1099 27H49.3098V25H49.1099V27ZM48.91 27H49.1099V25H48.91V27ZM48.7102 27H48.91V25H48.7102V27ZM48.5103 27H48.7102V25H48.5103V27ZM48.3105 27H48.5103V25H48.3105V27ZM48.1108 27H48.3105V25H48.1108V27ZM47.9111 27H48.1108V25H47.9111V27ZM47.7115 27H47.9111V25H47.7115V27ZM47.5119 27H47.7115V25H47.5119V27ZM47.3124 27H47.5119V25H47.3124V27ZM47.113 27H47.3124V25H47.113V27ZM46.9137 27H47.113V25H46.9137V27ZM46.7144 27H46.9137V25H46.7144V27ZM46.5153 27H46.7144V25H46.5153V27ZM46.3162 27H46.5153V25H46.3162V27ZM46.1172 27H46.3162V25H46.1172V27ZM45.9184 27H46.1172V25H45.9184V27ZM45.7197 27H45.9184V25H45.7197V27ZM45.5211 27H45.7197V25H45.5211V27ZM45.3226 27H45.5211V25H45.3226V27ZM45.1243 27H45.3226V25H45.1243V27ZM44.9261 27H45.1243V25H44.9261V27ZM44.728 27H44.9261V25H44.728V27ZM44.5302 27H44.728V25H44.5302V27ZM44.3324 27H44.5302V25H44.3324V27ZM44.1348 27H44.3324V25H44.1348V27ZM43.9374 27H44.1348V25H43.9374V27ZM43.7402 27H43.9374V25H43.7402V27ZM43.5432 27H43.7402V25H43.5432V27ZM43.3463 27H43.5432V25H43.3463V27ZM43.1497 27H43.3463V25H43.1497V27ZM42.9532 27H43.1497V25H42.9532V27ZM42.7569 27H42.9532V25H42.7569V27ZM42.5609 27H42.7569V25H42.5609V27ZM42.3651 27H42.5609V25H42.3651V27ZM42.1695 27H42.3651V25H42.1695V27ZM41.9741 27H42.1695V25H41.9741V27ZM41.779 27H41.9741V25H41.779V27ZM41.5841 27H41.779V25H41.5841V27ZM41.3894 27H41.5841V25H41.3894V27ZM41.195 27H41.3894V25H41.195V27ZM41.0009 27H41.195V25H41.0009V27ZM40.807 27H41.0009V25H40.807V27ZM40.6134 27H40.807V25H40.6134V27ZM40.4201 27H40.6134V25H40.4201V27ZM40.227 27H40.4201V25H40.227V27ZM40.0343 27H40.227V25H40.0343V27ZM39.8418 27H40.0343V25H39.8418V27ZM39.6496 27H39.8418V25H39.6496V27ZM39.4578 27H39.6496V25H39.4578V27ZM39.2662 27H39.4578V25H39.2662V27ZM39.075 27H39.2662V25H39.075V27ZM38.8841 27H39.075V25H38.8841V27ZM38.6935 27H38.8841V25H38.6935V27ZM38.5032 27H38.6935V25H38.5032V27ZM38.3133 27H38.5032V25H38.3133V27ZM38.1238 27H38.3133V25H38.1238V27ZM37.9346 27H38.1238V25H37.9346V27ZM37.7457 27H37.9346V25H37.7457V27ZM37.5573 27H37.7457V25H37.5573V27ZM37.3691 27H37.5573V25H37.3691V27ZM37.1814 27H37.3691V25H37.1814V27ZM36.9941 27H37.1814V25H36.9941V27ZM36.8071 27H36.9941V25H36.8071V27ZM36.6205 27H36.8071V25H36.6205V27ZM36.4343 27H36.6205V25H36.4343V27ZM36.2486 27H36.4343V25H36.2486V27ZM36.0632 27H36.2486V25H36.0632V27ZM35.8783 27H36.0632V25H35.8783V27ZM35.6938 27H35.8783V25H35.6938V27ZM35.5097 27H35.6938V25H35.5097V27ZM35.326 27H35.5097V25H35.326V27ZM35.1428 27H35.326V25H35.1428V27ZM34.9601 27H35.1428V25H34.9601V27ZM34.7777 27H34.9601V25H34.7777V27ZM34.5959 27H34.7777V25H34.5959V27ZM34.4145 27H34.5959V25H34.4145V27ZM34.2336 27H34.4145V25H34.2336V27ZM34.0531 27H34.2336V25H34.0531V27ZM33.8732 27H34.0531V25H33.8732V27ZM33.6937 27H33.8732V25H33.6937V27ZM33.5147 27H33.6937V25H33.5147V27ZM33.3362 27H33.5147V25H33.3362V27ZM33.1583 27H33.3362V25H33.1583V27ZM32.9808 27H33.1583V25H32.9808V27ZM32.8039 27H32.9808V25H32.8039V27ZM32.6274 27H32.8039V25H32.6274V27ZM32.4515 27H32.6274V25H32.4515V27ZM32.2762 27H32.4515V25H32.2762V27ZM32.1014 27H32.2762V25H32.1014V27ZM31.9271 27H32.1014V25H31.9271V27ZM31.7534 27H31.9271V25H31.7534V27ZM31.5802 27H31.7534V25H31.5802V27ZM31.4076 27H31.5802V25H31.4076V27ZM31.2356 27H31.4076V25H31.2356V27ZM31.0641 27H31.2356V25H31.0641V27ZM30.8933 27H31.0641V25H30.8933V27ZM30.723 27H30.8933V25H30.723V27ZM30.5533 27H30.723V25H30.5533V27ZM30.3842 27H30.5533V25H30.3842V27ZM30.2157 27H30.3842V25H30.2157V27ZM30.0478 27H30.2157V25H30.0478V27ZM29.8806 27H30.0478V25H29.8806V27ZM29.7139 27H29.8806V25H29.7139V27ZM29.5479 27H29.7139V25H29.5479V27ZM29.3826 27H29.5479V25H29.3826V27ZM29.2178 27H29.3826V25H29.2178V27ZM29.0538 27H29.2178V25H29.0538V27ZM28.8903 27H29.0538V25H28.8903V27ZM28.7276 27H28.8903V25H28.7276V27ZM28.5655 27H28.7276V25H28.5655V27ZM28.404 27H28.5655V25H28.404V27ZM28.2433 27H28.404V25H28.2433V27ZM28.0832 27H28.2433V25H28.0832V27ZM27.9238 27H28.0832V25H27.9238V27ZM27.7651 27H27.9238V25H27.7651V27ZM27.6071 27H27.7651V25H27.6071V27ZM27.4498 27H27.6071V25H27.4498V27ZM27.2932 27H27.4498V25H27.2932V27ZM27.1373 27H27.2932V25H27.1373V27ZM26.9822 27H27.1373V25H26.9822V27ZM26.8278 27H26.9822V25H26.8278V27ZM26.6741 27H26.8278V25H26.6741V27ZM26.5212 27H26.6741V25H26.5212V27ZM26.369 27H26.5212V25H26.369V27ZM26.2175 27H26.369V25H26.2175V27ZM26.0669 27H26.2175V25H26.0669V27ZM25.9169 27H26.0669V25H25.9169V27ZM25.7678 27H25.9169V25H25.7678V27ZM25.6194 27H25.7678V25H25.6194V27ZM25.4718 27H25.6194V25H25.4718V27ZM25.325 27H25.4718V25H25.325V27ZM25.179 27H25.325V25H25.179V27ZM25.0338 27H25.179V25H25.0338V27ZM24.8894 27H25.0338V25H24.8894V27ZM24.7458 27H24.8894V25H24.7458V27ZM24.603 27H24.7458V25H24.603V27ZM24.4611 27H24.603V25H24.4611V27ZM24.32 27H24.4611V25H24.32V27ZM24.1797 27H24.32V25H24.1797V27ZM24.0402 27H24.1797V25H24.0402V27ZM23.9016 27H24.0402V25H23.9016V27ZM23.7639 27H23.9016V25H23.7639V27ZM23.627 27H23.7639V25H23.627V27ZM23.4909 27H23.627V25H23.4909V27ZM23.3558 27H23.4909V25H23.3558V27ZM23.2215 27H23.3558V25H23.2215V27ZM23.0881 27H23.2215V25H23.0881V27ZM22.9556 27H23.0881V25H22.9556V27ZM22.8239 27H22.9556V25H22.8239V27ZM22.6932 27H22.8239V25H22.6932V27ZM22.5634 27H22.6932V25H22.5634V27ZM22.4345 27H22.5634V25H22.4345V27ZM22.3065 27H22.4345V25H22.3065V27ZM22.1794 27H22.3065V25H22.1794V27ZM22.0533 27H22.1794V25H22.0533V27ZM21.9281 27H22.0533V25H21.9281V27ZM21.8038 27H21.9281V25H21.8038V27ZM21.6805 27H21.8038V25H21.6805V27ZM21.5582 27H21.6805V25H21.5582V27ZM21.4368 27H21.5582V25H21.4368V27ZM21.3163 27H21.4368V25H21.3163V27ZM21.1968 27H21.3163V25H21.1968V27ZM21.0783 27H21.1968V25H21.0783V27ZM20.9608 27H21.0783V25H20.9608V27ZM20.8443 27H20.9608V25H20.8443V27ZM20.7288 27H20.8443V25H20.7288V27ZM20.6142 27H20.7288V25H20.6142V27ZM20.5007 27H20.6142V25H20.5007V27ZM20.3882 27H20.5007V25H20.3882V27ZM20.2767 27H20.3882V25H20.2767V27ZM20.1662 27H20.2767V25H20.1662V27ZM20.0567 27H20.1662V25H20.0567V27ZM19.9483 27H20.0567V25H19.9483V27ZM19.841 27H19.9483V25H19.841V27ZM19.7346 27H19.841V25H19.7346V27ZM19.6293 27H19.7346V25H19.6293V27ZM19.5251 27H19.6293V25H19.5251V27ZM19.422 27H19.5251V25H19.422V27ZM19.3199 27H19.422V25H19.3199V27ZM19.2189 27H19.3199V25H19.2189V27ZM19.1189 27H19.2189V25H19.1189V27ZM19.0201 27H19.1189V25H19.0201V27ZM18.9223 27H19.0201V25H18.9223V27ZM18.8257 27H18.9223V25H18.8257V27ZM18.7302 27H18.8257V25H18.7302V27ZM18.6357 27H18.7302V25H18.6357V27ZM18.5424 27H18.6357V25H18.5424V27ZM18.4502 27H18.5424V25H18.4502V27ZM18.3591 27H18.4502V25H18.3591V27ZM18.2692 27H18.3591V25H18.2692V27ZM18.1804 27H18.2692V25H18.1804V27ZM18.0928 27H18.1804V25H18.0928V27ZM18.0063 27H18.0928V25H18.0063V27ZM17.9209 27H18.0063V25H17.9209V27ZM17.8368 27H17.9209V25H17.8368V27ZM17.7538 27H17.8368V25H17.7538V27ZM17.6719 27H17.7538V25H17.6719V27ZM17.5913 27H17.6719V25H17.5913V27ZM17.5118 27H17.5913V25H17.5118V27ZM17.4336 27H17.5118V25H17.4336V27ZM17.3565 27H17.4336V25H17.3565V27ZM17.2807 27H17.3565V25H17.2807V27ZM17.206 27H17.2807V25H17.206V27ZM17.1326 27H17.206V25H17.1326V27ZM17.0604 27H17.1326V25H17.0604V27ZM16.9894 27H17.0604V25H16.9894V27ZM16.9196 27H16.9894V25H16.9196V27ZM16.8511 27H16.9196V25H16.8511V27ZM16.7839 27H16.8511V25H16.7839V27ZM16.7179 27H16.7839V25H16.7179V27Z" fill="black"/>
</svg>
