<svg width="100" height="100" viewBox="0 0 100 100" fill="none" xmlns="http://www.w3.org/2000/svg">
<rect width="100" height="100" rx="30" fill="#72EF5E"/>
<path d="M83.5 50C83.5 69.0939 68.462 84.5 50 84.5C31.538 84.5 16.5 69.0939 16.5 50C16.5 30.9061 31.538 15.5 50 15.5C68.462 15.5 83.5 30.9061 83.5 50Z" fill="#46FF28" stroke="white" stroke-width="3"/>
<path d="M23.5 87C23 86.5 25 74.5 25 74.5C28.0185 77.4414 29.7832 78.869 33 81C33 81 24 87.5 23.5 87Z" fill="#46FF28" stroke="white" stroke-width="3"/>
<rect x="33.5" y="39.5" width="34" height="22" rx="4.5" fill="white" stroke="black"/>
<path d="M31.7974 62.6078L32.9883 59.035C33.2234 58.3298 34.1185 58.1185 34.6441 58.6441L36.5496 60.5496C37.0233 61.0233 36.9064 61.8196 36.3166 62.1372L33.2202 63.8045C32.4228 64.2339 31.511 63.4669 31.7974 62.6078Z" fill="white" stroke="black"/>
<line x1="39" y1="44.5" x2="63" y2="44.5" stroke="black"/>
<line x1="39" y1="50.5" x2="57" y2="50.5" stroke="black"/>
<line x1="39" y1="55.5" x2="53" y2="55.5" stroke="black"/>
</svg>
