<svg width="50" height="50" viewBox="0 0 50 50" fill="none" xmlns="http://www.w3.org/2000/svg">
<path fill-rule="evenodd" clip-rule="evenodd" d="M25.0035 2.27349L25.0174 6.27343C31.3452 6.27759 37.0189 8.55911 41.0578 12.174L41.6273 12.6837H41.7147L42.8576 13.9968C42.9294 14.0792 43.0004 14.1621 43.0706 14.2455L43.6699 14.9573H44.6005H44.9584L44.6823 15.6752H47.5946H48V15.9487H2V15.6752H2.40543H5.31776L5.04157 14.9573H5.39955H6.33012L6.92947 14.2455C6.99968 14.1621 7.07066 14.0792 7.1424 13.9968L8.28534 12.6837H8.37274L8.94226 12.174C12.9811 8.55911 18.6548 6.2776 24.9827 6.27343L24.9965 2.27349C24.8828 2.27263 24.8046 2.23004 24.7623 2.18995C24.7415 2.17027 24.7327 2.1545 24.7298 2.14782C24.7276 2.14292 24.7273 2.14095 24.7273 2.13675C24.7273 2.13256 24.7276 2.13057 24.7298 2.12558C24.7329 2.11877 24.7418 2.10281 24.7629 2.08297C24.8058 2.04265 24.885 2 25 2C25.1151 2 25.1942 2.04265 25.2371 2.08297C25.2582 2.10281 25.2671 2.11878 25.2702 2.12558C25.2725 2.13057 25.2727 2.13256 25.2727 2.13675C25.2727 2.14095 25.2724 2.14291 25.2703 2.14782C25.2673 2.1545 25.2585 2.17027 25.2377 2.18995C25.1954 2.23004 25.1172 2.27263 25.0035 2.27349ZM44.3662 10.6837H42.3916C38.7463 7.42107 33.918 5.17981 28.5157 4.49444C27.3738 4.34957 26.2062 4.27421 25.0187 4.27343C26.1859 4.2646 27.1434 3.42854 27.2607 2.35821C27.2686 2.28541 27.2727 2.21153 27.2727 2.13675C27.2727 0.956655 26.2552 0 25 0C23.7448 0 22.7273 0.956655 22.7273 2.13675C22.7273 2.21153 22.7314 2.28541 22.7393 2.35821C22.8566 3.42854 23.8141 4.2646 24.9813 4.27343C23.7938 4.27421 22.6262 4.34957 21.4843 4.49445C16.0821 5.17982 11.2537 7.42107 7.60843 10.6837H5.63383H4.27272C3.42118 10.6837 2.69393 11.2159 2.40543 11.9658C2.31971 12.1886 2.27272 12.4307 2.27272 12.6837V12.9573C2.27272 13.2104 2.31971 13.4524 2.40543 13.6752H2.27272H2H0.337319H0V15.6752V15.9487V17.9487H2H48H50V15.9487V15.6752V13.6752H49.6627H48H47.7273H47.5946C47.6803 13.4524 47.7273 13.2104 47.7273 12.9573V12.6837C47.7273 12.4307 47.6803 12.1886 47.5946 11.9658C47.3061 11.2159 46.5788 10.6837 45.7273 10.6837H44.3662ZM45.7273 12.6837V12.9573H44.6005C44.5232 12.8656 44.4451 12.7743 44.3662 12.6837H44.6005H44.9255H45.7273ZM5.63383 12.6837C5.55492 12.7743 5.47683 12.8656 5.39955 12.9573H4.27272V12.6837H5.07454H5.39955H5.63383ZM4.27272 22.0856V22.0855H45.7273V22.0856V23.6753V35C45.7273 42.1797 39.907 48 32.7273 48H17.2727C10.093 48 4.27272 42.1797 4.27272 35V23.6753V22.0856ZM47.7273 20.0855H45.7273H4.27272H2.27272V20.0856H1.79485C0.803584 20.0856 0 20.8892 0 21.8805C0 22.8717 0.803584 23.6753 1.79485 23.6753H2.27272V25.6753V35C2.27272 43.2843 8.98844 50 17.2727 50H32.7273C41.0116 50 47.7273 43.2843 47.7273 35V25.6753V23.6753H48.2051C49.1964 23.6753 50 22.8717 50 21.8805C50 20.8892 49.1964 20.0856 48.2051 20.0856H47.7273V20.0855Z" fill="white"/>
</svg>
