<svg width="100" height="100" viewBox="0 0 100 100" fill="none" xmlns="http://www.w3.org/2000/svg">
<path fill-rule="evenodd" clip-rule="evenodd" d="M85 30C93.2843 30 100 23.2843 100 15C100 6.71573 93.2843 0 85 0C76.7157 0 70 6.71573 70 15C70 23.2843 76.7157 30 85 30ZM100 50C100 58.2843 93.2843 65 85 65C76.7157 65 70 58.2843 70 50C70 41.7157 76.7157 35 85 35C93.2843 35 100 41.7157 100 50ZM30 85C30 93.2843 23.2843 100 15 100C6.71573 100 0 93.2843 0 85C0 76.7157 6.71573 70 15 70C23.2843 70 30 76.7157 30 85ZM100 85C100 93.2843 93.2843 100 85 100C76.7157 100 70 93.2843 70 85C70 76.7157 76.7157 70 85 70C93.2843 70 100 76.7157 100 85ZM50 100C58.2843 100 65 93.2843 65 85C65 76.7157 58.2843 70 50 70C41.7157 70 35 76.7157 35 85C35 93.2843 41.7157 100 50 100ZM15 65C23.2843 65 30 58.2843 30 50C30 41.7157 23.2843 35 15 35C6.71573 35 0 41.7157 0 50C0 58.2843 6.71573 65 15 65ZM65 50C65 58.2843 58.2843 65 50 65C41.7157 65 35 58.2843 35 50C35 41.7157 41.7157 35 50 35C58.2843 35 65 41.7157 65 50ZM65 15C65 23.2843 58.2843 30 50 30C41.7157 30 35 23.2843 35 15C35 6.71573 41.7157 0 50 0C58.2843 0 65 6.71573 65 15ZM15 30C23.2843 30 30 23.2843 30 15C30 6.71573 23.2843 0 15 0C6.71573 0 0 6.71573 0 15C0 23.2843 6.71573 30 15 30Z" fill="#B3B3B3"/>
</svg>
