<svg width="150" height="250" viewBox="0 0 150 250" fill="none" xmlns="http://www.w3.org/2000/svg">
<rect x="26.5" y="1.5" width="97" height="180.824" rx="48.5" fill="#69A5FF" stroke="white" stroke-width="3"/>
<mask id="path-2-inside-1" fill="white">
<path d="M145 135.11C147.761 135.11 150.02 137.352 149.803 140.105C149.222 147.448 147.365 154.669 144.291 161.49C140.522 169.854 134.997 177.453 128.033 183.854C121.069 190.255 112.801 195.333 103.701 198.797C94.6018 202.261 84.8491 204.044 75 204.044C65.1509 204.044 55.3982 202.261 46.2987 198.797C37.1993 195.333 28.9314 190.255 21.967 183.854C15.0026 177.453 9.47814 169.854 5.70903 161.49C2.63485 154.669 0.777519 147.448 0.197139 140.105C-0.0204519 137.352 2.23858 135.11 5 135.11L6.25 135.11C9.01142 135.11 11.226 137.354 11.4819 140.103C12.0386 146.087 13.594 151.966 16.1027 157.533C19.3064 164.642 24.0022 171.101 29.9219 176.542C35.8417 181.983 42.8694 186.299 50.6039 189.244C58.3384 192.188 66.6282 193.704 75 193.704C83.3718 193.704 91.6616 192.188 99.3961 189.244C107.131 186.299 114.158 181.983 120.078 176.542C125.998 171.101 130.694 164.642 133.897 157.533C136.406 151.966 137.961 146.087 138.518 140.103C138.774 137.354 140.989 135.11 143.75 135.11H145Z"/>
</mask>
<path d="M145 135.11C147.761 135.11 150.02 137.352 149.803 140.105C149.222 147.448 147.365 154.669 144.291 161.49C140.522 169.854 134.997 177.453 128.033 183.854C121.069 190.255 112.801 195.333 103.701 198.797C94.6018 202.261 84.8491 204.044 75 204.044C65.1509 204.044 55.3982 202.261 46.2987 198.797C37.1993 195.333 28.9314 190.255 21.967 183.854C15.0026 177.453 9.47814 169.854 5.70903 161.49C2.63485 154.669 0.777519 147.448 0.197139 140.105C-0.0204519 137.352 2.23858 135.11 5 135.11L6.25 135.11C9.01142 135.11 11.226 137.354 11.4819 140.103C12.0386 146.087 13.594 151.966 16.1027 157.533C19.3064 164.642 24.0022 171.101 29.9219 176.542C35.8417 181.983 42.8694 186.299 50.6039 189.244C58.3384 192.188 66.6282 193.704 75 193.704C83.3718 193.704 91.6616 192.188 99.3961 189.244C107.131 186.299 114.158 181.983 120.078 176.542C125.998 171.101 130.694 164.642 133.897 157.533C136.406 151.966 137.961 146.087 138.518 140.103C138.774 137.354 140.989 135.11 143.75 135.11H145Z" fill="#FF0000" stroke="white" stroke-width="4" mask="url(#path-2-inside-1)"/>
<rect x="71" y="205.044" width="8" height="43.9559" rx="4" fill="#69A5FF" stroke="white" stroke-width="2"/>
</svg>
